<mxfile host="app.diagrams.net" modified="2023-11-02T21:05:04.681Z" agent="Mozilla/5.0 (X11; Linux x86_64) AppleWebKit/537.36 (KHTML, like Gecko) Chrome/118.0.0.0 Safari/537.36" etag="6yv6DmZ36rMlfE2MymiC" version="22.0.8" type="github">
  <diagram name="Página-1" id="ETZNSiQvTZ4J-55iKF7z">
    <mxGraphModel dx="1098" dy="587" grid="1" gridSize="10" guides="1" tooltips="1" connect="1" arrows="1" fold="1" page="1" pageScale="1" pageWidth="827" pageHeight="1169" math="0" shadow="0">
      <root>
        <mxCell id="0" />
        <mxCell id="1" parent="0" />
        <mxCell id="Y2xEf-CzXpEb0WmJXo6f-2" value="Inteligência Artificial: Jogador" style="swimlane;fontStyle=0;childLayout=stackLayout;horizontal=1;startSize=26;fillColor=none;horizontalStack=0;resizeParent=1;resizeParentMax=0;resizeLast=0;collapsible=1;marginBottom=0;whiteSpace=wrap;html=1;" parent="1" vertex="1">
          <mxGeometry x="470" y="90" width="200" height="70" as="geometry" />
        </mxCell>
        <mxCell id="Y2xEf-CzXpEb0WmJXo6f-3" value="simbolo: &quot;O&quot;" style="text;strokeColor=none;fillColor=none;align=left;verticalAlign=top;spacingLeft=4;spacingRight=4;overflow=hidden;rotatable=0;points=[[0,0.5],[1,0.5]];portConstraint=eastwest;whiteSpace=wrap;html=1;" parent="Y2xEf-CzXpEb0WmJXo6f-2" vertex="1">
          <mxGeometry y="26" width="200" height="44" as="geometry" />
        </mxCell>
        <mxCell id="aqnIn2phBkBqxdztw7Cu-1" value="Nome do Usuário: Jogador" style="swimlane;fontStyle=0;childLayout=stackLayout;horizontal=1;startSize=26;fillColor=none;horizontalStack=0;resizeParent=1;resizeParentMax=0;resizeLast=0;collapsible=1;marginBottom=0;whiteSpace=wrap;html=1;" vertex="1" parent="1">
          <mxGeometry x="150" y="90" width="214" height="70" as="geometry" />
        </mxCell>
        <mxCell id="aqnIn2phBkBqxdztw7Cu-2" value="simbolo: &quot;X&#39;&quot;" style="text;strokeColor=none;fillColor=none;align=left;verticalAlign=top;spacingLeft=4;spacingRight=4;overflow=hidden;rotatable=0;points=[[0,0.5],[1,0.5]];portConstraint=eastwest;whiteSpace=wrap;html=1;" vertex="1" parent="aqnIn2phBkBqxdztw7Cu-1">
          <mxGeometry y="26" width="214" height="44" as="geometry" />
        </mxCell>
      </root>
    </mxGraphModel>
  </diagram>
</mxfile>
